PathFileType	4	(X/Y/Z)	Walk2.trc
DataRate	CameraRate	NumFrames	NumMarkers	Units	OrigDataRate	OrigDataStartFrame	OrigNumFrames
200.000000	200.000000	6	61	mm	200.000000	304	591
Frame#	Times		RCAR		RTH2		LTH3		LTB1		LWRU		LBHD		LFA1		RTH3		LUA1		LElbow		LCAR		RToe		RPSI		RASI		RTB2		RLFC		RTB3		RTB1		C7		RMT5		LElbowM		RTB4		LTH4		RTH4		LTH1		LTH2		RWRR		RBHD		LWRR		STRN		RFA1		RMT1		RTH1		RMMAL		RLMAL		RBack		T10		LPSI		LASI		CLAV		RElbow		RUA1		RCAL		LLFC		LMFC		LACR1		LTB4		RElbowM		LTB3		LCAL		RFHD		RACR1		LFHD		LMMAL		RMFC		LTB2		LMT5		LLMAL		RWRU		LToe		LMT1
			X1	Y1	Z1	X2	Y2	Z2	X3	Y3	Z3	X4	Y4	Z4	X5	Y5	Z5	X6	Y6	Z6	X7	Y7	Z7	X8	Y8	Z8	X9	Y9	Z9	X10	Y10	Z10	X11	Y11	Z11	X12	Y12	Z12	X13	Y13	Z13	X14	Y14	Z14	X15	Y15	Z15	X16	Y16	Z16	X17	Y17	Z17	X18	Y18	Z18	X19	Y19	Z19	X20	Y20	Z20	X21	Y21	Z21	X22	Y22	Z22	X23	Y23	Z23	X24	Y24	Z24	X25	Y25	Z25	X26	Y26	Z26	X27	Y27	Z27	X28	Y28	Z28	X29	Y29	Z29	X30	Y30	Z30	X31	Y31	Z31	X32	Y32	Z32	X33	Y33	Z33	X34	Y34	Z34	X35	Y35	Z35	X36	Y36	Z36	X37	Y37	Z37	X38	Y38	Z38	X39	Y39	Z39	X40	Y40	Z40	X41	Y41	Z41	X42	Y42	Z42	X43	Y43	Z43	X44	Y44	Z44	X45	Y45	Z45	X46	Y46	Z46	X47	Y47	Z47	X48	Y48	Z48	X49	Y49	Z49	X50	Y50	Z50	X51	Y51	Z51	X52	Y52	Z52	X53	Y53	Z53	X54	Y54	Z54	X55	Y55	Z55	X56	Y56	Z56	X57	Y57	Z57	X58	Y58	Z58	X59	Y59	Z59	X60	Y60	Z60	X61	Y61	Z61

304	1.52	-211.6	858.3	293.57	-293.28	686.07	169.47	-309.6	612.84	-147.21	-255.79	377.06	-51.819	-436.31	839.59	-265.82	-419.67	1629.9	-92.647	-460.68	971.44	-282.82	-363.94	589.18	190.66	-437.85	1276.3	-266.74	-472.88	1122.5	-281.02	-368.44	794.15	-268.04	-635.18	40.121	120.47	-542.36	1009.6	48.585	-333.36	1029.6	145.9	-527.81	322.73	170.53	-385.78	480.42	186.47	-580.54	254.86	99.187	-418.32	358.64	118.46	-445.6	1503.9	-8.7437	-704.47	102.88	162.88	-506.89	1118.8	-211.3	-503.05	305.26	107.73	-328.09	701.72	-165.98	-363.33	683.18	196.12	-344.26	792.4	-181.97	-261.98	720.57	-143.17	-228	895.57	239.45	-412.81	1643.5	48.526	-369.52	849.98	-218.03	-268.26	1242.8	-14.739	-345.06	987.39	302.34	-662.29	73.976	93.742	-369.11	779.24	194.15	-661.33	199.94	60.061	-710	215.05	132.51	-514.66	1420.2	130.34	-549.81	1280.8	1.966	-545.1	1010.2	-29.304	-333.38	1031.3	-138.37	-314.27	1415.8	-13.816	-403.73	1131.1	289.52	-378.44	1286.9	248.84	-761.44	237.37	75.068	-295.9	511.95	-134.76	-296.05	522.47	-5.2755	-384.16	1451.8	-179.88	-272.4	288.38	-48.684	-434.32	1112.6	215.87	-288.28	193.52	-48.903	-405.06	27.138	-55.001	-237.79	1679.1	15.426	-359.67	1456.7	147.54	-240.32	1673	-60.808	-322.55	88.698	-8.8454	-354	484.31	56.537	-287.61	290.65	-122.07	-243.33	22.856	-122.32	-341.87	67.798	-93.043	-279.64	867.03	290.99	-145.88	29.597	-45.917	-201.36	39.088	-34.145
305	1.525	-210.34	856.91	294.03	-285.02	688.23	169.67	-306.59	612.86	-147.42	-254.46	376.75	-51.854	-426.92	840.56	-266.99	-414.37	1630.6	-92.692	-452.27	972.33	-284.09	-354.59	590.51	190.91	-431.34	1277.3	-267.36	-465.55	1123.3	-282.11	-358.51	795.9	-269.75	-623.38	42.074	121.92	-537.2	1010.4	47.853	-327.74	1029.8	146.29	-516.76	324.55	170.78	-375.06	481.93	186.87	-569.31	256.5	99.487	-407.24	360.35	118.88	-440.29	1504.6	-9.0137	-692.89	105.2	163.63	-499.66	1119.2	-212.46	-491.8	306.84	108.1	-324.51	701.86	-166.18	-355.15	684.48	196.27	-340.05	792.64	-182.25	-258.2	720.33	-143.43	-226.16	894.28	239.81	-407.5	1644.2	48.476	-359.95	851.58	-219.59	-263.01	1243.5	-14.744	-342.62	987.36	302	-650.43	75.93	94.808	-362.13	780.49	194.04	-650.06	201.6	60.189	-698.92	216.96	132.51	-509.86	1420.8	129.65	-544.6	1281.6	1.0819	-539.96	1011	-30.016	-327.93	1031.8	-138.32	-309.02	1416.5	-13.863	-400.05	1131.4	288.7	-374.36	1287.1	248.52	-750.4	238.74	74.836	-293.62	511.79	-134.9	-293.77	522.32	-5.3437	-378.49	1452.7	-180.02	-271.4	288.13	-48.711	-430.38	1113	214.95	-287.81	193.34	-48.864	-405.08	27.129	-54.978	-232.48	1679.9	15.372	-354.86	1457.2	147.57	-235.01	1673.8	-60.863	-322.54	88.725	-8.7965	-342.86	485.77	56.894	-286.44	290.41	-122.14	-243.34	22.86	-122.31	-341.86	67.826	-93.026	-278.2	866.28	291.23	-145.87	29.585	-45.931	-201.38	39.076	-34.124
306	1.53	-209.14	855.55	294.52	-276.84	690.47	169.84	-303.63	612.9	-147.6	-253.22	376.45	-51.86	-417.48	841.58	-268.15	-409.06	1631.4	-92.707	-443.82	973.26	-285.35	-345.3	591.95	191.18	-424.81	1278.3	-267.96	-458.2	1124.1	-283.17	-348.54	797.71	-271.46	-611.03	43.894	123.23	-532.07	1011.2	47.149	-322.28	1030.1	146.67	-505.64	326.28	171.04	-364.44	483.54	187.29	-557.9	257.97	99.798	-396.29	362.05	119.36	-434.99	1505.4	-9.2624	-680.89	107.17	164.31	-492.42	1119.7	-213.6	-480.43	308.35	108.5	-320.98	701.99	-166.36	-347	685.88	196.45	-335.87	792.89	-182.51	-254.48	720.1	-143.64	-224.37	893.02	240.2	-402.18	1645	48.456	-350.34	853.23	-221.13	-257.78	1244.2	-14.72	-340.22	987.38	301.67	-638.11	77.653	95.767	-355.17	781.81	193.94	-638.54	203.01	60.303	-687.61	218.51	132.49	-505.07	1421.4	128.97	-539.4	1282.4	0.21102	-534.84	1011.8	-30.704	-322.55	1032.4	-138.26	-303.79	1417.2	-13.888	-396.4	1131.7	287.89	-370.29	1287.4	248.2	-739.18	239.68	74.603	-291.43	511.64	-135.02	-291.53	522.15	-5.3811	-372.83	1453.5	-180.14	-270.46	287.88	-48.721	-426.46	1113.5	214.04	-287.36	193.18	-48.809	-405.09	27.121	-54.956	-227.16	1680.6	15.348	-350.05	1457.7	147.61	-229.69	1674.5	-60.887	-322.54	88.753	-8.7466	-331.8	487.32	57.275	-285.32	290.18	-122.19	-243.35	22.867	-122.3	-341.85	67.857	-93.009	-276.83	865.59	291.48	-145.86	29.572	-45.94	-201.39	39.061	-34.101
307	1.535	-207.99	854.24	295.02	-268.72	692.78	169.99	-300.73	612.94	-147.75	-252.05	376.17	-51.84	-408.02	842.65	-269.3	-403.74	1632.1	-92.694	-435.33	974.23	-286.6	-336.07	593.47	191.47	-418.26	1279.3	-268.52	-450.81	1125	-284.22	-338.56	799.58	-273.17	-598.17	45.554	124.38	-526.96	1012	46.476	-316.95	1030.5	147.06	-494.46	327.93	171.31	-353.9	485.23	187.73	-546.31	259.27	100.12	-385.47	363.74	119.9	-429.7	1506.2	-9.4906	-668.48	108.76	164.91	-485.14	1120.2	-214.73	-468.96	309.78	108.92	-317.49	702.13	-166.52	-338.9	687.36	196.65	-331.7	793.15	-182.76	-250.8	719.86	-143.8	-222.64	891.8	240.6	-396.86	1645.7	48.464	-340.72	854.92	-222.66	-252.59	1244.9	-14.667	-337.86	987.43	301.35	-625.36	79.136	96.613	-348.24	783.2	193.83	-626.76	204.15	60.403	-676.06	219.7	132.47	-500.29	1422	128.31	-534.23	1283.2	-0.64577	-529.75	1012.5	-31.366	-317.23	1033	-138.22	-298.57	1417.9	-13.892	-392.78	1132	287.1	-366.23	1287.7	247.89	-727.77	240.2	74.379	-289.32	511.51	-135.11	-289.34	521.97	-5.3945	-367.17	1454.5	-180.23	-269.55	287.64	-48.716	-422.55	1113.9	213.14	-286.96	193.02	-48.741	-405.11	27.116	-54.934	-221.83	1681.3	15.352	-345.26	1458.2	147.66	-224.36	1675.3	-60.882	-322.53	88.78	-8.6961	-320.82	488.94	57.679	-284.25	289.97	-122.24	-243.36	22.876	-122.29	-341.84	67.889	-92.992	-275.51	864.96	291.76	-145.86	29.559	-45.942	-201.4	39.044	-34.074
308	1.54	-206.9	852.98	295.53	-260.66	695.13	170.12	-297.89	612.99	-147.88	-250.94	375.9	-51.802	-398.52	843.79	-270.45	-398.41	1632.9	-92.656	-426.82	975.25	-287.84	-326.89	595.08	191.77	-411.68	1280.4	-269.06	-443.41	1125.9	-285.25	-328.55	801.51	-274.86	-584.82	47.039	125.36	-521.87	1012.9	45.838	-311.74	1030.9	147.44	-483.22	329.46	171.59	-343.44	486.97	188.18	-534.56	260.4	100.43	-374.76	365.41	120.49	-424.42	1506.9	-9.6991	-655.68	109.98	165.43	-477.85	1120.7	-215.83	-457.39	311.13	109.36	-314.04	702.27	-166.65	-330.85	688.93	196.88	-327.56	793.4	-182.98	-247.17	719.61	-143.92	-220.97	890.62	241.03	-391.52	1646.5	48.498	-331.07	856.66	-224.17	-247.41	1245.6	-14.588	-335.54	987.52	301.05	-612.18	80.377	97.339	-341.33	784.64	193.72	-614.76	205.04	60.491	-664.3	220.53	132.43	-495.52	1422.6	127.67	-529.06	1284	-1.4878	-524.67	1013.3	-31.998	-311.97	1033.7	-138.19	-293.37	1418.7	-13.877	-389.2	1132.3	286.32	-362.18	1288	247.58	-716.18	240.31	74.171	-287.29	511.38	-135.19	-287.22	521.77	-5.3911	-361.52	1455.4	-180.3	-268.69	287.42	-48.702	-418.67	1114.4	212.24	-286.58	192.87	-48.664	-405.13	27.113	-54.912	-216.48	1682.1	15.383	-340.47	1458.8	147.72	-219.02	1676	-60.852	-322.53	88.806	-8.6453	-309.93	490.64	58.103	-283.23	289.77	-122.26	-243.36	22.888	-122.28	-341.83	67.923	-92.973	-274.24	864.39	292.06	-145.85	29.544	-45.94	-201.41	39.026	-34.046
309	1.545	-205.86	851.77	296.06	-252.68	697.53	170.24	-295.1	613.04	-147.99	-249.89	375.65	-51.75	-388.99	844.97	-271.6	-393.08	1633.7	-92.595	-418.27	976.31	-289.06	-317.76	596.75	192.09	-405.09	1281.5	-269.57	-435.99	1126.9	-286.27	-318.52	803.5	-276.54	-571	48.336	126.17	-516.81	1013.7	45.237	-306.64	1031.4	147.79	-471.92	330.88	171.87	-333.07	488.75	188.64	-522.65	261.35	100.74	-364.14	367.05	121.11	-419.15	1507.7	-9.8888	-642.51	110.82	165.88	-470.53	1121.3	-216.92	-445.72	312.39	109.79	-310.65	702.42	-166.76	-322.86	690.57	197.13	-323.45	793.65	-183.18	-243.6	719.35	-144	-219.34	889.48	241.48	-386.17	1647.2	48.557	-321.42	858.45	-225.65	-242.26	1246.3	-14.487	-333.26	987.64	300.76	-598.61	81.376	97.947	-334.45	786.13	193.61	-602.53	205.67	60.566	-652.32	220.99	132.39	-490.75	1423.2	127.05	-523.92	1284.8	-2.3145	-519.6	1014.1	-32.6	-306.78	1034.3	-138.19	-288.19	1419.4	-13.845	-385.65	1132.7	285.55	-358.13	1288.3	247.28	-704.41	240.01	73.984	-285.35	511.27	-135.25	-285.17	521.57	-5.3773	-355.87	1456.3	-180.35	-267.86	287.2	-48.681	-414.81	1114.9	211.36	-286.22	192.73	-48.581	-405.14	27.114	-54.89	-211.13	1682.8	15.439	-335.7	1459.3	147.79	-213.67	1676.7	-60.799	-322.53	88.83	-8.5947	-299.11	492.4	58.542	-282.28	289.59	-122.28	-243.37	22.903	-122.27	-341.82	67.959	-92.953	-273.03	863.88	292.38	-145.85	29.53	-45.934	-201.42	39.007	-34.016
